<svg xmlns="http://www.w3.org/2000/svg" width="96" height="96" viewBox="0 0 96 96"><g fill="none" fill-rule="evenodd" stroke="none" stroke-width="1"><path fill="#000" d="M88.613,51.438 C88.634,52.221 88.712,53.007 88.664,53.786 C88.631,54.325 88.401,54.849 88.304,55.388 C88.194,56 88.163,56.628 88.042,57.239 C87.909,57.911 87.63,58.564 87.568,59.239 C87.503,59.951 87.08,60.496 86.901,61.143 C86.812,61.463 86.761,61.796 86.65,62.108 C86.484,62.572 86.287,63.025 86.091,63.477 C85.886,63.946 85.678,64.415 85.452,64.874 C85.226,65.331 84.991,65.785 84.735,66.225 C84.315,66.947 83.883,67.662 83.44,68.369 C83.186,68.774 82.883,69.148 82.634,69.555 C82.48,69.806 82.252,70.048 82.416,70.411 C82.45,70.488 82.25,70.66 82.177,70.798 C82.127,70.894 82.109,71.007 82.075,71.116 C81.561,71.037 81.193,71.49 81.094,71.777 C80.886,72.38 80.397,72.637 80.019,73.036 C79.84,73.224 79.692,73.442 79.525,73.642 C79.043,74.218 78.52,74.738 77.854,75.117 C77.574,75.277 77.392,75.6 77.143,75.824 C76.774,76.154 76.505,76.585 75.954,76.729 C75.669,76.803 75.397,77.111 75.22,77.379 C74.988,77.734 74.689,77.885 74.266,77.943 C74.302,78.05 74.328,78.128 74.355,78.207 C74.318,78.172 74.28,78.139 74.243,78.106 C74.009,78.262 73.775,78.418 73.541,78.576 C73.53,78.584 73.525,78.611 73.515,78.613 C73.053,78.681 72.768,79.014 72.447,79.304 C72.059,79.657 71.353,79.455 71.102,80.06 C70.42,79.92 70.155,80.551 69.731,80.85 C69.21,81.216 68.574,81.36 68.098,81.832 C67.823,82.104 67.338,82.167 66.947,82.322 C66.579,82.469 66.21,82.615 65.841,82.76 C65.676,82.826 65.509,82.889 65.299,82.971 C65.296,82.993 65.28,83.096 65.28,83.096 C64.909,83.171 64.599,83.234 64.29,83.297 C64.202,83.316 64.11,83.327 64.029,83.361 C63.616,83.532 63.216,83.736 62.794,83.876 C62.303,84.04 61.789,84.132 61.297,84.292 C61.141,84.342 61.023,84.507 60.835,84.664 C60.758,84.632 60.609,84.572 60.545,84.546 C59.824,84.834 59.163,85.106 58.495,85.361 C58.273,85.446 58.036,85.499 57.802,85.544 C57.178,85.666 56.551,85.775 55.926,85.889 C55.865,85.901 55.804,85.907 55.745,85.92 C55.381,86.001 55.014,86.164 54.655,86.149 C53.872,86.116 53.135,86.194 52.394,86.479 C51.899,86.669 51.343,86.741 50.809,86.782 C50.373,86.816 49.927,86.727 49.486,86.69 C49.441,86.686 49.395,86.645 49.356,86.652 C49.086,86.701 48.811,86.734 48.551,86.817 C48.278,86.906 47.905,86.64 47.719,87.046 C47.711,87.064 47.651,87.079 47.633,87.067 C46.968,86.626 46.221,86.937 45.566,86.984 C44.558,87.055 43.603,86.702 42.606,86.834 C42.239,86.882 41.846,86.696 41.462,86.657 C41.172,86.628 40.876,86.673 40.584,86.67 C40.138,86.667 39.68,86.709 39.249,86.623 C38.737,86.519 38.243,86.311 37.75,86.126 C37.515,86.039 37.308,85.926 37.286,86.216 C36.399,85.953 35.528,85.693 34.654,85.445 C34.63,85.438 34.569,85.564 34.536,85.612 C34.025,85.175 33.376,85.211 32.775,85.083 C32.442,85.011 32.119,84.886 31.796,84.774 C31.508,84.673 31.222,84.564 30.941,84.446 C30.49,84.256 30.05,84.045 29.595,83.87 C29.446,83.812 29.265,83.834 29.134,83.751 C28.956,83.66 28.787,83.535 28.597,83.486 C27.893,83.305 27.124,83.306 26.613,82.642 C26.497,82.492 26.261,82.426 26.073,82.339 C25.655,82.148 25.246,81.87 24.808,81.806 C24.157,81.713 23.929,81.096 23.412,80.866 C23.075,80.715 22.744,80.55 22.419,80.376 C21.818,80.055 21.216,79.737 20.631,79.388 C20.362,79.229 20.127,79.011 19.887,78.806 C19.564,78.53 19.26,78.23 18.93,77.963 C18.799,77.858 18.618,77.814 18.44,77.786 C18.191,77.544 18.202,77.037 17.672,77.028 L17.366,76.479 L16.845,76.479 C16.909,76.391 16.985,76.288 17.036,76.217 C16.912,76.155 16.758,76.122 16.668,76.026 C16.153,75.481 15.657,74.917 15.147,74.368 C14.816,74.012 14.426,73.701 14.145,73.311 C13.83,72.875 13.649,72.341 13.332,71.909 C13.013,71.474 12.568,71.134 12.232,70.71 C11.897,70.286 11.608,69.819 11.34,69.348 C11.216,69.128 11.207,68.846 11.108,68.609 C11.076,68.534 10.922,68.51 10.799,68.451 C10.954,67.966 10.486,67.729 10.224,67.413 C9.971,67.108 9.853,66.824 9.833,66.413 C9.811,65.961 9.678,65.455 9.425,65.09 C9.103,64.627 9.083,64.118 8.935,63.627 C8.895,63.497 8.78,63.389 8.766,63.37 C8.544,62.677 8.351,62.074 8.151,61.448 C8.491,61.277 8.312,61.042 8.157,60.73 C8.03,60.475 7.718,60.211 7.971,59.834 C8.011,59.773 7.782,59.569 7.75,59.416 C7.671,59.038 7.633,58.651 7.576,58.251 C7.585,58.25 7.52,58.258 7.444,58.267 C7.449,58.234 7.45,58.21 7.458,58.19 C7.5,58.075 7.583,57.959 7.582,57.845 C7.574,57.367 7.557,56.887 7.502,56.413 C7.494,56.347 7.255,56.308 7.084,56.242 C7.087,56.236 7.102,56.156 7.149,56.125 C7.564,55.851 7.602,55.555 7.395,55.085 C7.265,54.789 7.434,54.373 7.419,54.012 C7.401,53.565 7.731,53.122 7.423,52.667 C7.369,52.586 7.419,52.432 7.429,52.314 C7.477,51.746 7.525,51.178 7.582,50.611 C7.599,50.44 7.644,50.271 7.681,50.102 C7.691,50.058 7.752,50.002 7.739,49.98 C7.392,49.343 8.115,48.955 8.106,48.386 C8.099,47.975 8.192,47.563 8.238,47.151 C8.243,47.111 8.217,47.061 8.234,47.03 C8.53,46.471 8.531,46.472 8.422,45.894 C8.53,45.931 8.614,45.961 8.647,45.972 C8.878,45.015 9.111,44.052 9.328,43.152 C9.239,42.988 9.081,42.828 9.113,42.727 C9.168,42.551 9.332,42.405 9.467,42.261 C9.551,42.173 9.75,42.118 9.752,42.042 C9.764,41.659 10.325,41.458 10.069,40.959 C10.006,40.836 10.285,40.52 10.432,40.311 C10.597,40.077 10.692,39.855 10.53,39.578 C10.502,39.528 10.537,39.397 10.587,39.353 C10.754,39.207 10.881,39.094 10.773,38.82 C10.739,38.733 11.015,38.524 11.066,38.373 C11.144,38.017 11.194,37.652 11.307,37.308 C11.44,36.907 11.622,36.521 11.794,36.133 C11.864,35.977 11.936,35.804 12.056,35.691 C12.668,35.12 12.78,34.316 13.075,33.594 C13.238,33.195 13.471,32.822 13.682,32.442 C13.945,31.969 14.204,31.493 14.489,31.033 C14.745,30.62 15.029,30.223 15.308,29.825 C15.696,29.27 16.142,28.76 16.321,28.072 C16.386,27.82 16.677,27.633 16.843,27.401 C17.022,27.151 17.175,26.883 17.359,26.592 C17.418,26.54 17.542,26.465 17.619,26.356 C17.835,26.05 17.88,25.648 18.351,25.498 C18.615,25.414 18.809,25.054 18.991,24.789 C19.173,24.526 19.295,24.223 19.456,23.946 C19.495,23.878 19.59,23.794 19.656,23.796 C20.19,23.814 20.319,23.427 20.51,23.041 C20.687,22.684 20.933,22.339 21.222,22.067 C21.445,21.857 21.403,21.372 21.873,21.423 C21.869,20.736 22.848,20.821 22.868,20.153 C23.569,20.168 23.602,19.302 24.2,19.143 C24.378,19.096 24.467,18.77 24.635,18.612 C24.826,18.433 25.075,18.316 25.268,18.138 C25.372,18.042 25.411,17.874 25.509,17.679 C25.587,17.718 25.723,17.786 25.961,17.905 C26.138,17.707 26.363,17.449 26.594,17.198 C26.792,16.984 26.974,16.746 27.205,16.575 C27.423,16.413 27.695,16.325 27.927,16.211 C27.894,16.189 27.813,16.136 27.732,16.082 C27.74,16.037 27.749,15.991 27.758,15.946 C27.938,15.968 28.119,15.99 28.393,16.023 C28.402,15.877 28.38,15.682 28.438,15.515 C28.477,15.404 28.662,15.238 28.729,15.26 C29.145,15.397 29.353,15.177 29.53,14.864 C29.55,14.831 29.581,14.798 29.615,14.779 C30.18,14.449 30.738,14.104 31.317,13.801 C31.646,13.628 32.025,13.551 32.359,13.385 C32.651,13.24 32.902,13.015 33.188,12.856 C33.485,12.692 33.803,12.566 34.126,12.417 C34.109,12.395 34.057,12.332 33.951,12.202 C34.53,12.505 34.836,12.205 35.043,11.915 C35.271,11.915 35.427,11.944 35.568,11.909 C35.792,11.852 36.001,11.742 36.222,11.674 C36.508,11.586 36.696,11.354 36.934,11.215 C37.203,11.057 37.559,11.047 37.879,10.978 C37.924,10.968 37.987,11.01 38.02,10.991 C38.438,10.755 38.84,10.731 39.318,10.878 C39.637,10.977 40.01,10.811 40.337,10.603 C40.523,10.485 40.834,10.585 41.071,10.523 C41.363,10.447 41.63,10.268 41.923,10.199 C42.228,10.127 42.552,10.139 42.867,10.103 C43.001,10.088 43.132,10.044 43.308,10.004 C43.314,10.042 43.333,10.178 43.34,10.223 C44.002,10.206 44.655,10.188 45.309,10.172 C45.509,10.167 45.71,10.156 45.91,10.167 C46.193,10.183 46.48,10.264 46.756,10.231 C47.274,10.17 47.788,10.062 48.298,9.946 C48.647,9.867 48.98,9.701 49.332,9.648 C49.91,9.561 50.493,9.482 51.084,9.589 C51.19,9.609 51.318,9.462 51.438,9.46 C51.596,9.457 51.755,9.532 51.916,9.55 C52.258,9.588 52.6,9.61 52.946,9.639 C52.946,9.64 52.949,9.583 52.952,9.527 C53.205,9.565 53.46,9.599 53.712,9.644 C53.769,9.654 53.834,9.743 53.869,9.729 C54.312,9.56 54.661,9.822 55.048,9.946 C55.21,9.999 55.422,9.901 55.728,9.853 C56.027,10.074 56.495,10.088 56.939,10.019 C57.263,10.137 57.562,10.268 57.872,10.354 C58.416,10.505 58.964,10.646 59.517,10.757 C59.803,10.815 60.048,11.014 60.394,10.917 C60.546,10.874 60.779,11.117 60.973,11.232 C60.998,11.247 61.01,11.29 61.035,11.297 C61.432,11.417 61.832,11.527 62.228,11.652 C62.501,11.737 62.763,11.856 63.038,11.933 C63.331,12.014 63.637,12.046 63.928,12.131 C64.061,12.17 64.214,12.258 64.285,12.37 C64.595,12.855 65.04,13.031 65.594,13.088 C66.073,13.137 66.553,13.25 66.904,13.65 C66.973,13.729 67.135,13.728 67.254,13.764 C67.533,13.902 67.827,14.019 68.088,14.187 C68.456,14.423 68.796,14.705 69.157,14.952 C69.667,15.301 70.184,15.637 70.7,15.975 C70.933,16.127 71.207,16.234 71.402,16.424 C71.928,16.938 72.742,17.132 73.047,17.896 C73.065,17.942 73.186,17.94 73.247,17.98 C73.382,18.069 73.51,18.17 73.631,18.28 C73.92,18.458 74.342,18.572 74.467,18.83 C74.696,19.3 75.121,19.522 75.453,19.851 C75.692,20.087 76.061,20.188 76.307,20.419 C76.478,20.58 76.502,20.888 76.657,21.077 C77.133,21.654 77.421,22.376 78.157,22.762 C78.508,22.945 78.82,23.377 78.947,23.763 C79.111,24.259 79.603,24.379 79.825,24.774 C80.012,25.107 80.344,25.333 80.41,25.772 C80.44,25.963 80.789,26.105 81.033,26.301 C81.062,26.381 81.088,26.58 81.194,26.715 C81.488,27.091 81.863,27.41 82.118,27.808 C82.499,28.405 82.779,29.065 83.148,29.67 C83.625,30.452 84.15,31.204 84.65,31.971 C84.756,32.135 84.861,32.303 84.938,32.48 C85.058,32.759 85.165,33.044 85.258,33.334 C85.412,33.815 85.544,34.303 85.699,34.785 C85.787,35.057 85.918,35.316 86.005,35.589 C86.085,35.839 86.132,36.1 86.197,36.356 C86.227,36.472 86.26,36.589 86.304,36.701 C86.452,37.078 86.562,37.478 86.766,37.823 C87.072,38.341 86.969,39.001 87.39,39.474 C87.471,39.565 87.483,39.726 87.505,39.859 C87.647,40.705 87.777,41.553 87.93,42.397 C87.949,42.505 88.078,42.594 88.178,42.718 C87.983,43.083 87.958,43.427 88.241,43.872 C88.431,44.168 88.303,44.661 88.34,45.064 C88.351,45.187 88.436,45.304 88.484,45.425 C88.531,45.542 88.607,45.661 88.614,45.782 C88.651,46.424 88.655,47.068 88.699,47.709 C88.736,48.223 88.872,48.735 88.857,49.244 C88.841,49.792 88.693,50.337 88.617,50.885 C88.592,51.067 88.608,51.253 88.613,51.438 M92.767,46.149 C92.69,45.845 92.674,45.527 92.635,45.214 C92.613,45.03 92.6,44.844 92.582,44.654 C92.526,44.256 92.473,43.868 92.416,43.479 C92.353,43.058 92.285,42.638 92.222,42.218 C92.177,41.917 92.141,41.614 92.094,41.313 C91.985,40.614 91.877,39.915 91.754,39.218 C91.74,39.141 91.637,39.081 91.522,38.955 C91.479,38.768 91.419,38.469 91.342,38.174 C91.189,37.599 91.019,37.029 90.872,36.453 C90.809,36.21 90.785,35.959 90.742,35.71 C90.738,35.683 90.72,35.657 90.706,35.623 C90.638,35.641 90.571,35.66 90.49,35.681 C90.435,35.297 90.435,34.904 90.313,34.553 C90.182,34.182 89.976,33.817 89.723,33.517 C89.562,33.326 89.443,33.152 89.566,33.034 C89.478,32.846 89.391,32.701 89.339,32.543 C89.259,32.301 89.244,32.027 89.125,31.809 C88.918,31.432 88.896,30.902 88.354,30.789 C88.321,29.524 85.518,24.75 84.814,24.508 C84.783,24.302 84.807,24.084 84.717,23.936 C84.471,23.533 84.171,23.164 83.905,22.773 C83.754,22.553 83.654,22.295 83.486,22.092 C83.114,21.641 82.701,21.223 82.33,20.771 C82.126,20.522 81.987,20.222 81.794,19.962 C81.603,19.704 81.363,19.48 81.179,19.217 C80.901,18.819 80.65,18.41 80.155,18.235 C80.09,18.212 80.02,18.052 80.038,17.974 C80.094,17.723 80.123,17.55 79.765,17.664 C79.708,17.682 79.548,17.553 79.549,17.55 C79.721,17.215 79.442,17.35 79.321,17.331 C79.202,17.312 79.081,17.302 78.924,17.284 C79.097,16.875 78.776,16.863 78.56,16.694 C78.013,16.27 77.551,15.738 77.017,15.295 C76.773,15.094 76.592,14.942 76.818,14.602 C76.581,14.669 76.393,14.722 76.139,14.794 C76.248,14.62 76.302,14.533 76.357,14.445 C76.264,14.401 76.171,14.317 76.08,14.32 C75.8,14.33 75.634,14.213 75.573,13.946 C75.488,13.578 75.261,13.582 75.075,13.673 C74.942,13.545 74.876,13.424 74.795,13.413 C74.34,13.347 73.989,13.146 73.722,12.76 C73.6,12.583 73.404,12.446 73.217,12.327 C72.718,12.008 72.027,11.906 71.963,11.121 C71.815,11.169 71.702,11.206 71.707,11.204 C71.511,11.049 71.367,10.841 71.249,10.855 C70.599,10.936 70.307,10.237 69.727,10.194 C69.698,10.191 69.68,10.119 69.647,10.093 C69.53,10.004 69.418,9.902 69.287,9.842 C69.168,9.788 68.997,9.823 68.9,9.75 C68.593,9.519 68.361,9.221 67.914,9.164 C67.623,9.126 67.363,8.851 67.017,8.637 C67.012,8.639 66.906,8.683 66.8,8.726 C66.815,8.676 66.83,8.627 66.846,8.577 C66.39,8.384 65.935,8.191 65.375,7.954 C65.257,7.646 65.112,7.64 64.695,8.008 C64.319,7.763 63.991,7.49 63.616,7.319 C63.094,7.082 62.538,6.916 61.993,6.731 C61.84,6.68 61.674,6.667 61.513,6.642 C61.221,6.596 60.846,6.655 60.652,6.493 C60.208,6.124 59.736,5.936 59.173,5.9 C58.889,5.882 58.586,5.731 58.329,5.794 C57.719,5.943 57.196,5.43 56.599,5.625 C56.575,5.633 56.534,5.56 56.494,5.542 C56.194,5.41 55.895,5.271 55.586,5.16 C55.519,5.136 55.417,5.234 55.328,5.24 C54.933,5.265 54.492,5.393 54.155,5.261 C53.848,5.142 53.588,5.133 53.282,5.127 C52.064,5.104 50.846,5.047 49.545,5 C49.619,5.19 49.67,5.319 49.727,5.464 C49.628,5.479 49.527,5.495 49.464,5.504 C49.412,5.371 49.382,5.163 49.321,5.154 C48.906,5.091 48.486,5.07 48.042,5.033 C48.074,5.215 48.092,5.312 48.11,5.413 C47.983,5.357 47.883,5.272 47.788,5.278 C47.168,5.314 46.543,5.334 45.932,5.432 C45.558,5.492 45.205,5.684 44.84,5.811 C44.804,5.823 44.737,5.802 44.709,5.773 C44.328,5.369 43.891,5.422 43.435,5.592 C43.471,5.666 43.505,5.733 43.589,5.902 C43.395,5.804 43.282,5.699 43.223,5.724 C42.853,5.876 42.458,5.996 42.111,6.15 C41.776,6.298 41.567,6.354 41.3,6.157 C40.955,5.905 40.653,5.96 40.422,6.179 C40.299,6.124 40.152,6.021 40.122,6.049 C39.722,6.408 39.227,6.181 38.811,6.299 C38.6,6.359 38.238,6.16 38.123,6.538 C38.112,6.576 38.015,6.625 37.973,6.613 C37.388,6.45 36.881,6.738 36.355,6.895 C36.155,6.955 35.998,7.161 35.798,7.213 C35.586,7.269 35.331,7.17 35.122,7.231 C34.833,7.316 34.566,7.481 34.297,7.626 C34.122,7.72 33.96,7.838 33.746,7.975 C33.64,7.95 33.56,7.641 33.262,7.964 C32.988,8.261 32.488,8.364 32.071,8.505 C31.765,8.609 31.426,8.613 31.114,8.704 C30.825,8.787 30.53,8.91 30.64,9.322 C30.644,9.336 30.614,9.36 30.601,9.378 C30.517,9.281 30.435,9.185 30.443,9.194 C28.38,10.182 26.645,11.522 25.003,12.984 C24.812,13.063 24.509,13.094 24.413,13.251 C24.227,13.555 23.938,13.606 23.674,13.748 C23.379,13.905 23.096,14.099 22.842,14.316 C22.337,14.75 21.862,15.217 21.362,15.656 C21.121,15.867 20.851,16.046 20.597,16.242 C20.541,16.285 20.482,16.331 20.445,16.388 C20.227,16.72 20.03,17.066 19.793,17.384 C19.723,17.479 19.546,17.49 19.426,17.554 C19.323,17.609 19.138,17.707 19.148,17.75 C19.239,18.146 18.854,18.22 18.704,18.447 C18.679,18.485 18.609,18.534 18.616,18.547 C18.823,18.931 18.417,18.916 18.278,19.07 C18.121,19.244 17.988,19.489 17.792,19.565 C17.519,19.672 17.407,19.85 17.301,20.084 C17.249,20.198 17.15,20.296 17.056,20.383 C16.708,20.704 16.351,21.015 16.002,21.335 C15.967,21.368 15.932,21.465 15.946,21.478 C16.289,21.789 15.81,21.941 15.759,21.97 C15.264,22.252 14.944,22.674 14.57,23.087 C14.125,23.579 13.822,24.05 13.82,24.749 C13.621,24.691 13.473,24.648 13.363,24.616 C13.378,24.803 13.39,24.978 13.405,25.164 C13.299,25.175 13.194,25.187 13.187,25.187 C13.05,25.408 12.953,25.557 12.865,25.71 C12.805,25.814 12.764,25.928 12.706,26.032 C12.617,26.188 12.54,26.357 12.422,26.489 C12.207,26.728 11.776,26.943 11.775,27.169 C11.774,27.722 11.14,27.796 11.092,28.336 C11.055,28.758 10.675,29.157 10.421,29.55 C10.141,29.984 10.23,30.608 9.699,30.92 C9.629,30.961 9.657,31.171 9.639,31.304 C9.634,31.346 9.627,31.388 9.62,31.431 C9.537,31.419 9.465,31.41 9.4,31.401 C9.33,31.778 9.201,32.077 8.921,32.363 C8.696,32.592 8.621,32.943 8.351,33.215 C8.047,33.522 7.956,34.056 7.817,34.504 C7.734,34.774 7.505,35.074 7.5,35.234 C7.488,35.652 7.213,35.912 7.119,36.255 C6.99,36.731 6.43,37.125 6.968,37.801 C6.715,37.68 6.62,37.635 6.521,37.588 C6.555,37.836 6.584,38.046 6.613,38.257 C6.568,38.239 6.523,38.221 6.478,38.204 C6.101,38.869 5.864,39.597 5.71,40.353 C5.673,40.537 5.745,40.742 5.768,40.951 C5.631,41.046 5.421,41.161 5.261,41.323 C5.201,41.383 5.295,41.645 5.25,41.666 C4.991,41.783 5.091,42.026 5.014,42.204 C4.954,42.343 4.853,42.466 4.752,42.626 C4.931,42.985 4.599,44.175 4.231,44.38 C4.4,45.058 3.815,45.783 4.446,46.434 L3.977,46.434 C4.015,46.546 4.07,46.692 4.065,46.694 C3.717,46.836 3.8,47.041 3.956,47.279 C3.992,47.334 3.959,47.446 3.938,47.527 C3.868,47.802 3.773,48.073 3.72,48.351 C3.663,48.65 3.66,48.959 3.6,49.257 C3.577,49.368 3.394,49.457 3.392,49.558 C3.38,50.038 3.447,50.522 3.404,50.998 C3.37,51.375 3.47,51.835 3,52.08 C3.065,52.216 3.129,52.353 3.19,52.482 C3.124,52.608 2.998,52.733 3.009,52.843 C3.079,53.479 3.196,54.11 3.265,54.746 C3.304,55.098 3.327,55.463 3.277,55.812 C3.178,56.501 3.086,57.187 3.175,57.882 C3.188,57.989 3.259,58.127 3.346,58.18 C3.695,58.389 3.55,58.52 3.309,58.643 C3.372,58.868 3.509,59.098 3.48,59.306 C3.41,59.794 3.418,60.231 3.715,60.663 C3.842,60.849 3.849,61.129 3.876,61.371 C3.912,61.691 3.84,62.042 3.945,62.334 C4.163,62.932 4.62,63.436 4.606,64.131 C4.601,64.36 4.697,64.592 4.759,64.819 C4.82,65.042 4.897,65.26 4.975,65.508 C4.963,65.511 5.053,65.488 5.092,65.477 C5.132,65.671 5.239,65.871 5.18,65.967 C4.845,66.508 5.338,66.456 5.564,66.584 C5.548,66.657 5.486,66.781 5.518,66.814 C5.826,67.135 5.902,67.547 6.021,67.952 C6.146,68.375 6.553,68.664 6.498,69.208 C6.474,69.443 6.51,70.007 6.946,69.944 C7.073,70.166 7.134,70.328 7.242,70.449 C7.532,70.772 7.871,71.054 7.798,71.568 C7.779,71.706 7.848,71.883 7.932,72.004 C8.284,72.51 8.645,73.01 9.025,73.495 C9.335,73.89 9.772,74.215 9.982,74.654 C10.336,75.392 10.743,76.033 11.48,76.433 C11.582,76.489 11.681,76.665 11.676,76.78 C11.66,77.129 11.847,77.238 12.144,77.237 C12.13,77.598 12.608,78.28 12.957,78.495 C13.299,78.706 13.616,78.957 13.941,79.196 C14.01,79.247 14.105,79.311 14.117,79.382 C14.234,80.028 14.732,80.313 15.229,80.617 C15.529,80.8 15.809,81.021 16.082,81.245 C16.34,81.456 16.555,81.724 16.827,81.914 C17.406,82.317 17.983,82.742 18.612,83.054 C19.369,83.43 20.067,83.912 20.822,84.295 C21.602,84.692 22.48,85.041 23.101,85.735 C23.148,85.787 23.231,85.835 23.299,85.837 C23.615,85.847 23.806,86.115 24.142,86.171 C24.811,86.284 25.3,86.975 26.077,86.902 C26.134,86.896 26.193,87.003 26.262,87.028 C26.765,87.206 27.134,87.77 27.791,87.532 C27.921,87.485 28.116,87.617 28.387,87.697 C28.261,87.729 28.156,87.756 27.999,87.796 C28.512,88.087 28.892,88.308 29.279,88.515 C29.353,88.554 29.461,88.524 29.548,88.546 C30.107,88.693 30.667,88.835 31.22,88.998 C31.867,89.188 32.501,89.425 33.153,89.588 C33.643,89.71 34.153,89.761 34.656,89.816 C34.83,89.834 35.013,89.768 35.17,89.744 C35.454,89.863 35.748,90.034 36.064,90.107 C36.728,90.262 37.406,90.354 38.072,90.501 C38.217,90.533 38.348,90.783 38.463,90.767 C39.024,90.691 39.6,91.063 40.152,90.7 C40.217,90.657 40.355,90.724 40.46,90.741 C40.593,90.762 40.743,90.834 40.857,90.795 C41.267,90.661 41.621,90.806 41.981,90.959 C42.077,91.001 42.188,91.088 42.271,91.068 C42.809,90.932 43.314,91.196 43.842,91.174 C44.229,91.159 44.617,91.171 45.123,91.171 C44.932,91.029 44.837,90.958 44.741,90.886 L44.825,90.79 C44.983,90.942 45.14,91.093 45.298,91.246 C45.343,91.192 45.414,91.108 45.436,91.082 C45.713,91.16 45.944,91.274 46.179,91.283 C46.822,91.306 47.456,91.113 48.111,91.197 C48.365,91.229 48.654,91.045 48.898,91.097 C49.193,91.161 49.344,91.045 49.513,90.871 C49.54,90.842 49.588,90.833 49.64,90.808 C49.726,90.907 49.805,91 49.885,91.092 C49.897,91.054 49.909,91.016 49.921,90.978 C50.109,91.01 50.301,91.083 50.485,91.067 C50.791,91.041 51.094,90.967 51.394,90.896 C51.73,90.815 52.061,90.714 52.446,90.608 C52.517,90.64 52.719,90.819 52.876,90.786 C53.376,90.677 53.853,90.467 54.35,90.342 C54.665,90.263 55.001,90.248 55.328,90.237 C55.666,90.224 56.006,90.265 56.345,90.259 C56.717,90.252 57.09,90.219 57.557,90.192 C57.994,89.989 58.536,89.7 59.105,89.481 C59.856,89.192 60.677,89.285 61.461,88.915 C62.101,88.612 62.749,88.013 63.596,88.228 C63.63,88.237 63.693,88.124 63.746,88.072 C63.797,88.022 63.845,87.952 63.907,87.934 C64.338,87.81 64.779,87.719 65.202,87.576 C65.654,87.422 66.087,87.217 66.533,87.046 C66.755,86.96 66.987,86.9 67.201,86.833 C67.04,86.698 66.909,86.587 66.788,86.485 C67.289,85.876 67.379,85.894 67.806,86.617 C68.43,86.319 69.061,86.022 69.688,85.718 C70.324,85.41 70.956,85.092 71.59,84.78 C71.608,84.805 71.625,84.83 71.643,84.855 C71.594,84.932 71.545,85.009 71.483,85.107 C71.969,84.698 72.354,84.153 72.959,84.271 C73.287,83.931 73.528,83.597 73.847,83.375 C74.149,83.166 74.532,83.075 74.88,82.931 C74.914,82.988 74.948,83.045 74.983,83.102 C75.213,82.825 75.437,82.542 75.677,82.272 C75.743,82.198 75.864,82.109 75.944,82.123 C76.422,82.204 76.539,81.79 76.783,81.547 C77.085,81.248 77.373,80.93 77.704,80.667 C78.047,80.395 78.503,80.24 78.776,79.919 C78.958,79.707 79.144,79.635 79.36,79.524 C79.591,79.406 79.784,79.206 79.978,79.025 C80.058,78.951 80.076,78.807 80.158,78.739 C80.735,78.256 81.321,77.785 81.905,77.312 C82.151,77.115 82.449,76.963 82.641,76.725 C82.925,76.371 83.119,75.946 83.384,75.574 C83.507,75.401 83.689,75.253 83.874,75.144 C84.275,74.906 84.301,74.311 84.843,74.19 C85.011,74.153 85.187,73.904 85.255,73.715 C85.382,73.36 85.544,72.99 85.801,72.72 C85.886,72.631 86.016,72.546 86.04,72.441 C86.193,71.776 86.561,71.222 86.911,70.656 C87.011,70.492 87.005,70.182 87.13,70.127 C87.864,69.806 87.874,68.972 88.359,68.468 C88.756,68.056 89.009,67.504 89.316,67.008 C89.395,66.881 89.484,66.731 89.486,66.591 C89.493,65.993 89.727,65.472 90.05,65.001 C90.371,64.535 90.504,64.237 90.499,63.663 C90.498,63.583 90.575,63.502 90.616,63.421 C90.746,63.166 90.904,62.919 90.997,62.651 C91.126,62.281 91.005,61.827 91.438,61.558 C91.541,61.495 91.538,61.25 91.567,61.084 C91.653,60.589 91.699,60.085 91.821,59.6 C91.905,59.267 92.155,58.971 92.214,58.638 C92.301,58.152 92.285,57.647 92.313,57.155 C92.259,57.162 92.178,57.172 92.064,57.188 C92.166,57.046 92.283,56.955 92.305,56.844 C92.44,56.162 92.582,55.478 92.664,54.789 C92.717,54.336 92.65,53.872 92.679,53.416 C92.716,52.852 92.795,52.292 92.858,51.713 C92.85,51.712 92.767,51.704 92.734,51.701 C92.76,51.509 92.794,51.334 92.806,51.159 C92.84,50.674 92.881,50.19 92.889,49.706 C92.896,49.296 92.895,48.902 92.955,48.485 C93.065,47.722 92.964,46.919 92.767,46.149 M54.6897,63.9819 C54.6687,64.0849 54.6557,64.1899 54.6477,64.2339 C54.4987,64.5589 54.3457,64.8429 54.2357,65.1429 C54.1557,65.3639 54.3567,65.6869 53.9647,65.7999 C53.9177,65.8139 53.9237,66.0539 53.9287,66.1889 C53.9367,66.4139 53.9247,66.5919 53.7107,66.7619 C53.2347,67.1409 52.7817,67.5519 52.3537,67.9839 C52.1827,68.1569 52.1127,68.4269 51.9737,68.6379 C51.9197,68.7199 51.8057,68.7689 51.7107,68.8169 C51.6307,68.8559 51.5167,68.8469 51.4557,68.9019 C50.9447,69.3559 49.9697,69.7939 49.2927,69.7589 C48.9327,69.7419 48.5677,69.8399 48.2037,69.8579 C47.9947,69.8689 47.8067,69.4059 47.5877,69.8719 C47.4477,69.5039 47.2397,69.5479 46.9317,69.5599 C46.6587,69.5699 46.2747,69.6259 46.0157,69.2419 C45.8887,69.0539 45.3767,68.9569 45.1387,69.0559 C44.7727,69.2099 44.6047,69.0829 44.3547,68.8839 C43.9187,68.5389 43.3977,68.2879 43.0097,67.9009 C42.7587,67.6509 42.6807,67.2279 42.4997,66.8259 L41.9087,66.8259 C41.9417,66.6199 41.9697,66.4539 42.0007,66.2669 C41.9347,66.2549 41.8327,66.2369 41.8017,66.2309 C41.7597,66.0509 41.7367,65.9059 41.6917,65.7669 C41.4877,65.1459 41.2247,64.5389 41.0907,63.9039 C41.0147,63.5409 41.1437,63.1329 41.1827,62.7459 C41.2407,62.1759 41.2317,61.5879 41.3787,61.0439 C41.5227,60.5089 41.8287,60.0199 42.0567,59.5069 C42.1277,59.3479 42.1767,59.1779 42.2437,58.9929 C42.6897,58.5889 43.1447,58.1789 43.6387,57.7329 C43.6367,57.7299 43.5917,57.6429 43.5857,57.6309 C44.2087,57.0159 44.9157,56.6689 45.7537,56.5449 C46.1537,56.4859 46.5257,56.2419 46.9207,56.0769 C46.9697,56.2279 46.9987,56.3169 47.0197,56.3809 C47.2907,56.2949 47.5227,56.1759 47.7647,56.1539 C48.0447,56.1279 48.3327,56.1849 48.6507,56.2099 L48.6507,55.8419 C48.8577,56.0819 48.8817,56.4129 49.3617,56.1519 C49.6347,56.0029 50.1747,56.3379 50.5917,56.4629 C50.7227,56.5029 50.8537,56.5529 50.9717,56.6219 C51.0547,56.6699 51.1167,56.7559 51.1687,56.8069 C51.5777,57.2409 51.9537,57.6789 52.3737,58.0709 C52.6287,58.3089 52.9857,58.4389 53.2317,58.6839 C53.4997,58.9519 53.7017,59.2889 53.9137,59.6079 C54.0267,59.7769 54.0997,59.9719 54.2217,60.2189 C54.2297,60.2109 54.1607,60.2879 54.0927,60.3619 C54.5507,60.6099 54.5127,61.0259 54.4707,61.4499 C54.4567,61.5909 54.4387,61.7659 54.5047,61.8759 C54.9157,62.5519 54.8407,63.2609 54.6897,63.9819 M59.0787,61.4889 C58.8847,61.7679 58.8777,62.0069 59.0977,62.1609 C59.1437,62.5599 59.2077,62.8959 59.2137,63.2339 C59.2197,63.5679 59.1517,63.9029 59.1447,64.2379 C59.1357,64.6599 59.0377,65.0479 58.8247,65.4139 C58.7797,65.4909 58.8007,65.6069 58.7957,65.7059 C58.7907,65.8079 58.8277,65.9319 58.7827,66.0079 C58.5817,66.3439 58.3457,66.6599 58.1487,66.9979 C58.0657,67.1399 58.0717,67.3329 57.9947,67.4809 C57.6097,68.2139 57.2167,68.9429 56.8107,69.6659 C56.7307,69.8089 56.5927,69.9269 56.4637,70.0359 C56.3237,70.1539 56.0227,70.1459 56.1617,70.4609 C55.6307,70.6609 55.6667,71.4509 54.9817,71.5419 C54.6957,71.5809 54.4467,71.8859 54.1797,72.0689 C54.1297,72.1029 54.0797,72.1489 54.0247,72.1569 C53.4037,72.2499 52.9627,72.6819 52.4427,72.9679 C52.1847,73.1109 51.8507,73.1139 51.5617,73.1779 C51.5657,73.1829 51.6307,73.2609 51.7567,73.4159 C51.2627,73.5029 50.8367,73.5979 50.4067,73.6509 C50.1407,73.6839 49.9067,73.6459 49.7097,73.9369 C49.5087,74.2309 48.5897,74.2959 48.2577,74.1469 C48.1617,74.1039 48.0247,74.1069 47.9217,74.1369 C47.7277,74.1939 47.5737,74.2619 47.5197,73.9629 C47.5087,73.9019 47.2797,73.8299 47.1637,73.8449 C46.7777,73.8989 46.4007,74.0099 46.0157,74.0579 C45.8547,74.0789 45.6817,73.9949 45.5137,73.9599 C45.2307,73.8989 44.9327,73.8739 44.6687,73.7669 C44.5257,73.7099 44.4397,73.5129 44.3157,73.3659 C44.2107,73.4039 44.0157,73.5389 43.8317,73.5239 C43.6577,73.5099 43.4897,73.3489 43.3307,73.2369 C42.9697,72.9819 42.6287,72.6959 42.2537,72.4649 C41.9237,72.2629 41.5567,72.1199 41.2067,71.9509 C41.1927,71.9439 41.1727,71.9479 41.1617,71.9379 C40.8197,71.6499 40.4777,71.3629 40.1397,71.0699 C39.9877,70.9379 39.8357,70.8029 39.7057,70.6519 C39.5507,70.4709 39.4057,70.2779 39.2787,70.0769 C38.8857,69.4519 38.4827,68.8309 38.1227,68.1859 C37.9207,67.8259 37.7847,67.4259 37.6437,67.0359 C37.5127,66.6739 37.3987,66.3049 37.3077,65.9319 C37.2707,65.7799 37.3107,65.6089 37.3157,65.4459 C37.3167,65.4159 37.3307,65.3779 37.3167,65.3549 C36.9297,64.6769 37.1677,63.8929 36.9787,63.2109 C36.7067,62.2299 36.9657,61.3869 37.2587,60.5029 C37.3797,60.1339 37.3937,59.7319 37.4907,59.3539 C37.5727,59.0319 37.7047,58.7209 37.8227,58.3789 C37.9337,58.4059 38.0467,58.4319 38.1847,58.4649 C38.1787,58.4129 38.1797,58.3739 38.1687,58.3389 C38.0137,57.8059 38.4047,57.4559 38.6787,57.1449 C39.0577,56.7139 39.3697,56.2709 39.6117,55.7549 C39.6757,55.6189 39.9317,55.5719 40.1277,55.4679 C40.0947,55.4059 40.0407,55.3049 39.9747,55.1809 C40.7627,54.7119 41.2817,53.8909 42.0907,53.4549 C42.1127,53.4859 42.1337,53.5179 42.1557,53.5489 C42.2237,53.4299 42.2917,53.3099 42.3607,53.1889 C42.4807,53.2239 42.6577,53.3049 42.6757,53.2779 C42.8487,53.0209 43.1997,52.9539 43.3417,52.7279 C43.5017,52.4729 43.6807,52.4379 43.9267,52.4159 C44.1627,52.3939 44.4677,52.4179 44.4047,52.0469 C44.7557,52.1009 45.1177,52.1869 45.4807,52.1919 C45.5837,52.1939 45.6897,51.9589 45.7557,51.8779 L47.0677,51.8779 C47.0627,51.7729 47.0577,51.6879 47.0547,51.6209 C47.3777,51.7069 47.6817,51.7879 47.9857,51.8689 C47.9707,51.8329 47.9547,51.7949 47.9387,51.7589 C48.0387,51.7129 48.1497,51.6159 48.2347,51.6349 C48.3637,51.6639 48.5317,51.8679 48.5847,51.8359 C48.9997,51.5839 49.3947,51.6959 49.8027,51.8309 C50.0277,51.9049 50.2587,51.9699 50.4927,52.0069 C50.6727,52.0359 50.8867,51.9549 51.0407,52.0239 C51.6667,52.3069 52.2677,52.6449 52.8937,52.9299 C53.2647,53.0999 53.6637,53.2089 53.9957,53.3249 C54.1657,53.4659 54.2947,53.5879 54.4387,53.6899 C54.5897,53.7969 54.7547,53.8849 54.9177,53.9839 C54.8547,54.0739 54.7987,54.1539 54.7197,54.2669 C54.9727,54.3709 55.1977,54.4689 55.4277,54.5549 C55.5157,54.5879 55.6607,54.5589 55.6997,54.6139 C56.0817,55.1609 56.5187,55.6499 57.0717,56.0289 C57.1257,56.0659 57.1777,56.1459 57.1817,56.2099 C57.2117,56.6439 57.6727,56.9179 57.6217,57.3879 C57.6177,57.4289 57.8147,57.4719 57.8847,57.5449 C58.0237,57.6939 58.1397,57.8649 58.2657,58.0259 C58.2147,58.0609 58.1637,58.0969 58.1077,58.1359 C58.3637,58.7439 58.7207,59.3539 58.8607,60.0109 C58.9457,60.4059 59.1257,60.7789 59.1497,61.1839 C59.1557,61.2849 59.1347,61.4089 59.0787,61.4889 Z M85.0979,40.3569 C85.1039,40.4709 85.1109,40.5859 85.1179,40.6989 C85.1659,40.7109 85.2139,40.7219 85.2619,40.7339 C85.1189,41.0469 85.0499,41.4419 84.8149,41.6549 C84.5069,41.9339 84.4599,42.4179 83.9409,42.5609 C83.6139,42.6519 83.3789,43.0739 83.0989,43.3429 C82.8519,43.5819 82.6099,43.8259 82.3489,44.0479 C81.8849,44.4459 81.4089,44.8289 80.9079,45.2429 C80.8889,45.2299 80.8049,45.1739 80.7229,45.1209 C80.6899,45.1509 80.6619,45.1659 80.6489,45.1889 C80.5469,45.3679 80.4839,45.5859 80.3409,45.7199 C80.0149,46.0279 79.6429,46.2869 79.3029,46.5789 C79.0779,46.7709 78.8679,46.9809 78.6629,47.1949 C78.3669,47.5059 78.1229,47.8869 77.7779,48.1249 C77.5369,48.2899 77.1669,48.2819 76.8509,48.3089 C76.7889,48.3139 76.7109,48.1279 76.6429,48.0339 C76.5559,48.0669 76.3989,48.1859 76.3209,48.1469 C75.7579,47.8679 75.0799,47.8129 74.6359,47.3039 C74.5559,47.2119 74.4919,47.1019 74.4439,46.9899 C74.4019,46.8919 74.3939,46.7809 74.3219,46.6899 C74.2829,46.3449 74.2429,46.0009 74.2059,45.6559 C74.2009,45.5999 74.1909,45.5369 74.2119,45.4879 C74.5419,44.7049 74.6629,43.8919 74.6099,43.0449 C74.6029,42.9339 74.7889,42.8119 74.7899,42.6699 C74.8929,42.3959 74.9959,42.1229 75.1269,41.7739 C75.1069,41.7529 75.0059,41.6399 74.9769,41.6099 C74.4629,41.7749 73.9949,41.9129 73.5379,42.0809 C73.3849,42.1359 73.2589,42.2659 73.1189,42.3639 C72.5479,42.3019 71.9159,42.2349 71.3309,42.1709 C71.1689,41.7029 71.0349,41.2409 70.8499,40.7989 C70.6299,40.2719 70.9179,39.2989 71.4129,38.9889 C71.4879,38.9429 71.5389,38.8539 71.5879,38.7769 C71.8919,38.3009 71.8909,38.2999 72.3489,38.6909 C72.4199,38.6119 72.4909,38.5329 72.5699,38.4449 C72.4619,38.4059 72.3819,38.3779 72.3029,38.3479 C72.9639,38.1729 73.2779,37.5199 73.8819,37.2809 C74.4899,37.0399 75.0719,36.7339 75.6659,36.4559 C75.6849,36.4929 75.7039,36.5299 75.7239,36.5669 C75.7599,36.4169 75.7959,36.2659 75.8319,36.1159 C75.8509,36.1429 75.8709,36.1699 75.8899,36.1969 C76.0729,36.0829 76.2449,35.9469 76.4399,35.8609 C76.6219,35.7799 76.8439,35.6769 77.0199,35.7149 C77.3739,35.7919 77.7119,35.5779 78.0399,35.6799 C78.5429,35.8389 79.0169,36.0009 79.4429,36.4059 C79.7969,36.7429 79.8979,37.1499 80.0159,37.5119 C80.1429,37.9019 79.9779,38.3869 79.9369,38.8309 C79.9179,39.0299 79.8899,39.2289 79.8519,39.5489 C79.8439,39.5519 79.7349,39.5919 79.6169,39.6359 C79.7409,39.7909 79.8629,39.9419 80.0129,40.1289 C79.8059,40.2579 79.6189,40.3749 79.4459,40.4819 C79.7409,40.6479 80.1879,40.4989 80.4839,40.1979 C80.8369,39.8379 81.2389,39.5249 81.6249,39.1989 C81.7859,39.0619 81.9449,38.8999 82.1339,38.8259 C82.6319,38.6299 83.1459,38.4779 83.6569,38.3079 C83.8029,38.8519 83.7999,38.8329 84.3059,38.7339 C84.4429,38.7069 84.6169,38.8169 84.7599,38.8899 C84.9859,39.0039 85.1129,39.6949 85.0749,39.9279 C85.0829,40.0719 85.0899,40.2139 85.0979,40.3569 Z M73.1702,54.7671 C73.2762,55.0331 73.2682,55.3181 73.5072,55.5671 C73.6542,55.7191 73.6662,56.1781 73.5422,56.3781 C73.2732,56.8131 73.2762,57.3631 72.8152,57.7291 C72.3302,58.1141 71.8472,58.3261 71.2402,58.2971 C71.1642,58.2941 71.0362,58.3541 71.0122,58.4151 C70.8022,58.9591 70.3042,58.9481 69.8542,59.0791 C69.5072,59.1801 69.1282,59.3451 68.8882,59.6011 C68.5602,59.9511 68.2262,59.9011 67.8482,59.8331 C67.7472,59.8151 67.6442,59.7991 67.5422,59.7821 C67.5232,59.8161 67.5032,59.8491 67.4832,59.8821 C67.5672,59.9791 67.6522,60.0751 67.8002,60.2431 C67.5512,60.3111 67.3412,60.3681 67.0582,60.4451 C67.0312,60.6661 66.9412,60.9761 66.4912,60.8221 C66.3292,61.2511 65.7972,60.7671 65.5672,61.1961 C65.5152,61.2921 64.9372,61.2041 64.6692,61.0671 C64.1352,60.7951 63.6142,60.4731 63.1592,60.0871 C62.9642,59.9211 62.7322,59.5371 63.2302,59.2491 C63.0452,59.2141 62.9042,59.1881 62.6992,59.1481 C62.7782,59.0361 62.8722,58.9051 62.9792,58.7531 C62.6382,58.4571 62.9692,58.1471 63.0372,57.8301 C63.0612,57.7191 63.1832,57.6311 63.2162,57.5191 C63.3512,57.0651 63.5362,56.6121 63.5772,56.1461 C63.6282,55.5791 63.5722,54.9961 63.5112,54.4261 C63.5012,54.3241 63.2412,54.2471 63.1322,54.1821 C62.3772,54.7151 61.7122,54.6161 61.2002,53.9541 C61.0762,53.6911 60.9422,53.4311 60.8302,53.1631 C60.7502,52.9751 60.6922,52.7771 60.6342,52.5801 C60.5902,52.4311 60.5632,52.2771 60.5232,52.1261 C60.4252,51.7641 60.5522,51.5361 61.0292,51.4601 C60.8612,51.3601 60.7832,51.3131 60.6592,51.2391 C60.9372,50.9651 61.1822,50.6621 61.4852,50.4411 C61.8502,50.1761 62.0872,49.6821 62.6482,49.7371 C62.6512,49.6771 62.6312,49.5971 62.6622,49.5591 C63.1602,48.9391 63.9952,48.8261 64.5632,48.3011 C64.8042,48.0791 65.0822,47.8681 65.3812,47.7441 C65.7742,47.5811 66.2042,47.5101 66.6692,47.3871 C66.6662,47.4311 66.6702,47.3561 66.6782,47.2341 C66.9482,47.4441 67.1782,47.6221 67.4322,47.8201 C67.4812,47.7541 67.5592,47.6481 67.6472,47.5311 C68.3272,48.0051 68.6982,48.6951 68.8782,49.4401 C68.9942,49.9261 68.8732,50.4711 68.8402,50.9881 C68.8362,51.0491 68.6672,51.1081 68.6702,51.1611 C68.6792,51.2841 68.3212,51.4291 68.6832,51.5391 C68.7102,51.5481 68.7162,51.6821 68.7042,51.7521 C68.5922,52.4371 68.4812,53.1211 68.3462,53.8021 C68.3312,53.8781 68.1792,53.9281 68.0902,53.9901 C68.3542,54.4401 68.2922,54.7211 67.8512,54.9721 C68.0482,55.2691 68.2722,55.3281 68.5882,55.1521 C68.7122,55.0841 68.8792,55.0701 69.0242,55.0761 C69.2132,55.0841 69.3812,55.1741 69.3752,54.8361 C69.3742,54.7351 69.7052,54.6181 69.8922,54.5261 C70.3832,54.2881 70.8502,53.9531 71.4392,54.0501 C71.5932,54.0761 71.7362,54.1681 71.9202,54.2461 C72.2152,53.9631 72.9482,54.2151 73.1702,54.7671 Z M61.6287,37.3218 C60.9647,37.4548 60.3667,37.2268 59.7737,36.9798 C59.5897,36.9038 59.4477,36.7268 59.2107,36.9588 C59.1127,37.0528 58.7157,37.0248 58.6337,36.9178 C58.3257,36.5118 57.8877,36.3418 57.4987,36.0738 C57.1967,35.8668 56.8027,35.7038 56.5987,35.4348 C56.4127,35.1878 56.2107,35.0788 55.9777,34.9338 C55.8687,34.8668 55.8917,34.6158 55.8117,34.4698 C55.4007,33.7178 55.2677,32.9388 55.5657,32.1168 C55.6617,31.8528 55.7297,31.4428 55.9117,31.3768 C56.2427,31.2568 56.4177,30.7988 56.9157,30.9768 C57.2557,31.0978 57.6847,30.9448 58.0537,31.0188 C58.5107,31.1118 58.8837,31.3858 59.2777,31.6688 C59.8307,32.0638 60.2927,32.5968 61.0537,32.7818 C61.5517,32.9028 61.9587,32.8678 62.4127,32.8078 C62.6397,32.7778 62.8957,32.8098 63.0887,32.7148 C63.2757,32.6228 63.3997,32.4018 63.6147,32.1678 C63.6387,32.1858 63.7347,32.2608 63.8497,32.3478 C63.8827,31.7348 64.0847,31.2188 64.4267,30.7538 C64.4637,30.7018 64.4947,30.6208 64.4827,30.5628 C64.4127,30.2218 64.5947,30.1698 64.9067,30.2488 C64.8697,30.1978 64.8337,30.1468 64.7967,30.0958 C64.9317,29.9918 65.0637,29.8828 65.2047,29.7848 C65.3977,29.6518 65.5857,29.5028 65.7967,29.4048 C66.2057,29.2168 66.6077,28.9538 67.0977,29.1578 C67.1567,29.1828 67.2477,29.1678 67.3097,29.1398 C67.8037,28.9198 68.2187,29.0198 68.5277,29.4298 C68.6267,29.5588 68.7477,29.6748 68.8707,29.7818 C69.3987,30.2448 69.5037,30.6208 69.2917,31.2428 C69.2467,31.3748 69.2937,31.5468 69.2287,31.6618 C69.0277,32.0188 68.7887,32.3528 68.5757,32.7038 C68.4847,32.8538 68.4627,33.1168 68.3427,33.1668 C67.9477,33.3298 68.0137,33.7128 67.8647,33.9888 C67.7457,34.2108 67.5957,34.4148 67.4667,34.6318 C67.3777,34.7828 67.3017,34.9428 67.1747,35.0618 C67.0697,35.1718 66.9847,35.3248 66.8567,35.3818 C66.2327,35.6548 65.9057,36.4078 65.1237,36.4288 C64.9397,36.4338 64.7627,36.5658 64.5767,36.6198 C64.0647,36.7668 63.5517,36.9168 63.0337,37.0408 C62.5697,37.1508 62.0967,37.2268 61.6287,37.3218 Z M38.6228,37.2534 C38.3318,37.5314 37.9338,37.5434 37.5988,37.6934 C36.8778,38.0164 36.1248,38.1444 35.3678,38.3114 C34.5618,38.4884 33.7768,38.7124 32.9608,38.4024 C32.7408,38.3194 32.5268,38.2194 32.3078,38.1324 C32.2218,38.0984 32.0958,38.0304 32.0468,38.0654 C31.6078,38.3674 31.2388,38.2634 30.9978,37.8374 C30.7488,37.3974 30.0808,37.5774 29.9058,37.0254 C29.8638,36.8934 29.5508,36.8624 29.3928,36.7454 C29.2738,36.6564 29.2048,36.5034 29.1128,36.3794 C29.0938,36.3534 29.0708,36.3014 29.0558,36.3034 C28.4158,36.3834 28.5728,35.7884 28.3748,35.4964 C28.3378,35.4414 28.3788,35.3244 28.3368,35.2834 C27.8218,34.7784 27.9868,34.2004 28.1458,33.6224 C28.2268,33.3294 28.2918,33.0284 28.4118,32.7524 C28.4678,32.6234 28.6388,32.5454 28.7518,32.4384 C29.1118,32.0994 29.5638,32.2164 29.9888,32.1644 C30.6838,32.0774 31.2368,32.3774 31.7618,32.7404 C32.3218,33.1284 32.8108,33.6284 33.3958,33.9644 C33.8418,34.2184 34.3898,34.2234 34.9168,34.0874 C35.0978,34.0404 35.3018,34.1004 35.4928,34.0814 C35.7888,34.0544 36.0598,33.7234 36.1128,33.2994 C36.2628,33.4084 36.3618,33.4824 36.4068,33.5144 C36.5698,33.0164 36.6138,32.4164 36.9358,32.0834 C37.1258,31.8854 36.8118,31.2044 37.3448,31.4194 C37.5288,31.2504 37.6488,31.1184 37.7908,31.0154 C37.9928,30.8684 38.1938,30.6904 38.4238,30.6204 C38.8328,30.4964 39.2638,30.4414 39.6858,30.3644 C39.7548,30.3524 39.8398,30.4004 39.9008,30.3784 C40.5118,30.1534 40.7638,30.2214 41.1708,30.7024 C41.4018,30.9754 41.6508,31.2314 41.8978,31.4894 C42.2148,31.8204 41.8638,32.1384 41.8818,32.4674 C41.9188,33.1234 41.5058,33.5874 41.1248,34.0594 C41.0448,34.1574 41.0258,34.3054 40.9498,34.4084 C40.9148,34.4564 40.8098,34.4534 40.8098,34.4534 C40.5678,34.9154 40.3298,35.3664 40.0958,35.8204 C40.0268,35.9524 39.9808,36.0964 39.9048,36.2234 C39.8678,36.2854 39.7938,36.3344 39.7258,36.3674 C39.6658,36.3974 39.5728,36.3754 39.5278,36.4144 C39.2208,36.6894 38.9198,36.9694 38.6228,37.2534 Z"/></g></svg>